<?xml version="1.0" standalone="no"?>
<!DOCTYPE svg PUBLIC "-//W3C//DTD SVG 20010904//EN"
 "http://www.w3.org/TR/2001/REC-SVG-20010904/DTD/svg10.dtd">
<svg version="1.0" xmlns="http://www.w3.org/2000/svg"
 width="512.000000pt" height="512.000000pt" viewBox="0 0 512.000000 512.000000"
 preserveAspectRatio="xMidYMid meet">

<g transform="translate(0.000000,512.000000) scale(0.100000,-0.100000)"
fill="#000000" stroke="none">
<path d="M3065 4935 c-25 -24 -25 -24 -25 -240 l0 -215 -59 0 c-79 0 -137 -22
-188 -72 -95 -93 -97 -227 -6 -328 l43 -48 -15 -36 c-27 -63 -16 -147 27 -208
19 -28 19 -28 0 -55 -64 -92 -54 -205 25 -293 l43 -48 -15 -36 c-31 -74 -13
-163 46 -230 21 -24 52 -49 69 -56 l30 -12 0 -449 0 -449 -480 0 -480 0 0 89
0 89 30 12 c17 7 48 32 69 56 59 67 77 156 46 230 l-15 36 43 48 c74 82 86
169 38 265 -29 57 -29 59 -12 84 42 60 52 144 26 207 l-15 36 43 48 c93 103
90 228 -8 325 -56 57 -102 75 -189 75 l-56 0 0 375 0 376 -25 24 c-24 25 -26
25 -215 25 -259 0 -240 21 -240 -265 l0 -215 -173 0 c-123 0 -178 -4 -190 -12
-9 -7 -68 -83 -132 -168 l-116 -154 -182 -73 -181 -73 -209 0 c-207 0 -208 0
-232 -25 l-25 -24 0 -511 0 -511 25 -24 c24 -25 25 -25 232 -25 l209 0 199
-80 199 -80 288 0 288 0 0 -80 0 -80 -295 0 -296 0 -26 -26 -25 -26 5 -276 c4
-226 9 -295 26 -376 92 -445 352 -821 726 -1054 163 -101 352 -175 548 -214
160 -32 434 -32 593 0 652 130 1139 615 1275 1268 17 81 22 150 26 376 l5 276
-25 26 -26 26 -296 0 -295 0 0 440 0 440 288 0 288 0 199 80 199 80 209 0
c207 0 208 0 232 25 l25 24 0 511 0 511 -25 24 c-24 25 -25 25 -232 25 l-209
0 -181 73 -182 73 -116 154 c-64 85 -123 161 -132 168 -12 8 -67 12 -190 12
l-173 0 0 55 c0 46 -4 60 -25 80 -24 25 -26 25 -215 25 -189 0 -191 0 -215
-25z m295 -295 l0 -160 -80 0 -80 0 0 160 0 160 80 0 80 0 0 -160z m555 -153
l115 -153 217 -87 218 -87 168 0 167 0 0 -400 0 -400 -168 0 -168 0 -199 -80
-199 -80 -489 0 -488 0 -24 25 c-16 15 -25 36 -25 55 0 19 9 40 25 55 24 25
24 25 240 25 l215 0 0 80 0 80 -255 0 -256 0 -24 25 c-33 32 -33 78 0 110 l24
25 256 0 255 0 0 80 0 80 -255 0 -256 0 -24 25 c-16 15 -25 36 -25 55 0 19 9
40 25 55 l24 25 256 0 255 0 0 80 0 80 -295 0 -296 0 -24 25 c-16 15 -25 36
-25 55 0 19 9 40 25 55 l24 25 271 0 271 0 24 25 c24 23 25 29 25 160 l0 135
140 0 140 0 115 -153z m-1995 -407 l0 -320 -80 0 -80 0 0 320 0 320 80 0 80 0
0 -320z m-320 -295 c0 -131 1 -137 25 -160 l24 -25 271 0 271 0 24 -25 c33
-32 33 -78 0 -110 l-24 -25 -296 0 -295 0 0 -80 0 -80 255 0 256 0 24 -25 c33
-32 33 -78 0 -110 l-24 -25 -256 0 -255 0 0 -80 0 -80 255 0 256 0 24 -25 c33
-32 33 -78 0 -110 l-24 -25 -256 0 -255 0 0 -80 0 -80 215 0 c216 0 216 0 240
-25 33 -32 33 -78 0 -110 l-24 -25 -488 0 -489 0 -199 80 -199 80 -168 0 -168
0 0 400 0 400 167 0 168 0 218 87 217 87 115 153 115 153 140 0 140 0 0 -135z
m1760 -1185 l0 -440 -80 0 -80 0 0 440 0 440 80 0 80 0 0 -440z m-1440 -360
l0 -80 -80 0 -80 0 0 80 0 80 80 0 80 0 0 -80z m-480 -320 l0 -80 -160 0 -160
0 0 80 0 80 160 0 160 0 0 -80z m1600 -215 l0 -296 -25 -24 c-15 -16 -36 -25
-55 -25 -19 0 -40 9 -55 25 -24 23 -25 31 -25 136 0 137 -11 177 -67 239 -65
72 -151 96 -247 68 -55 -16 -138 -99 -154 -154 -8 -29 -12 -138 -12 -353 l0
-312 -25 -24 c-32 -33 -78 -33 -110 0 l-25 24 0 232 c0 153 -4 246 -12 273
-26 86 -136 166 -228 166 -123 0 -240 -116 -240 -239 0 -42 -38 -81 -80 -81
-19 0 -40 9 -55 25 l-25 24 0 296 0 295 720 0 720 0 0 -295z m960 215 l0 -80
-400 0 -400 0 0 80 0 80 400 0 400 0 0 -80z m-2560 -376 c0 -170 9 -204 75
-269 52 -53 102 -75 167 -75 123 0 238 115 238 239 0 42 38 81 80 81 19 0 40
-9 55 -25 l25 -24 0 -232 c0 -153 4 -246 12 -273 16 -55 99 -138 154 -154 96
-28 182 -4 247 68 24 26 49 66 55 88 8 27 12 139 12 351 l0 312 25 24 c32 33
78 33 110 0 24 -23 25 -31 25 -136 0 -144 11 -181 75 -244 102 -103 243 -101
338 5 57 64 67 101 67 264 l0 136 400 0 400 0 -5 -42 c-29 -215 -67 -354 -140
-503 -201 -414 -568 -695 -1035 -792 -128 -26 -411 -24 -542 5 -632 138 -1085
639 -1152 1275 l-6 57 160 0 160 0 0 -136z"/>
<path d="M3670 1413 c-22 -66 -108 -226 -160 -295 -67 -88 -172 -193 -270
-269 -44 -34 -80 -64 -80 -66 0 -11 82 -123 89 -123 22 0 195 146 279 235 137
145 252 331 296 478 16 53 19 50 -54 66 -77 18 -87 15 -100 -26z"/>
<path d="M2880 560 l0 -80 80 0 80 0 0 80 0 80 -80 0 -80 0 0 -80z"/>
<path d="M3925 2871 c-90 -22 -173 -90 -215 -176 -21 -44 -25 -67 -28 -187
l-4 -137 27 -26 26 -27 177 4 c169 3 179 5 228 30 76 40 107 70 144 140 33 61
34 67 38 200 4 136 4 137 -21 162 -26 26 -27 26 -184 25 -87 -1 -171 -4 -188
-8z m233 -221 c-4 -74 -19 -105 -72 -144 -23 -18 -45 -22 -137 -24 l-109 -4 0
55 c0 64 12 102 43 136 37 39 75 50 181 51 l98 0 -4 -70z"/>
<path d="M2720 2720 l0 -80 80 0 80 0 0 80 0 80 -80 0 -80 0 0 -80z"/>
<path d="M2400 2400 l0 -80 80 0 80 0 0 80 0 80 -80 0 -80 0 0 -80z"/>
</g>
</svg>
